<?xml version="1.0" encoding="utf-8"?>
<!-- Generator: Adobe Illustrator 23.0.3, SVG Export Plug-In . SVG Version: 6.00 Build 0)  -->
<svg version="1.1" id="Layer_1" xmlns="http://www.w3.org/2000/svg" xmlns:xlink="http://www.w3.org/1999/xlink" x="0px" y="0px"
	 viewBox="0 0 1200 1200" enable-background="new 0 0 1200 1200" xml:space="preserve">
<g>
	<path fill="#FF3324" d="M408.922,321.147c8.534-6.03,19.349-7.592,31.369-0.583c10.686,6.231,17.041,19.166,15.444,31.433
		c-1.951,14.977-13.95,26.292-24.538,37.063c-12.057,12.264-16.598,23.312-20.413,39.571c-3.759,16.023-8.98,33.57-19.939,46.263
		c-8.927,10.339-21.071,15.505-36.427,15.505c-14.045,0-24.966-3.721-32.761-11.16c-15.063-14.376-12.756-39.783-13.025-58.611
		c-0.229-16.021-1.63-32.802-5.416-48.411c-3.417-14.088-14.982-25.933-10.276-41.58c5.219-17.352,22.142-17.643,37.159-15.981
		c6.237,0.691,12.503,3.682,15.759,9.046c3.618,5.959,2.931,13.475,2.124,20.401c-2.183,18.743-19.315,94.831,12.278,95.135
		c30.059,0.289,27.565-63.226,29.399-82.072C390.983,343.546,398.129,328.774,408.922,321.147z M479.335,479.436
		c-7.976-4.998-14.314-12.379-19.015-22.142c-4.704-9.759-7.052-21.575-7.052-35.452c0-9.679,1.249-20.164,3.747-31.456
		c5.475-24.2,13.752-41.66,24.821-52.392c16.188-15.694,42.317-22.942,63.875-19.811c9.669,1.404,19.235,5.886,25.469,13.91
		c15.611,20.093-3.042,62.68-29.541,45.622c-8.323-5.358-8.665-16.065-20.871-15.777c-25.003,0.59-42.671,87.233-9.877,86.845
		c12.218-0.146,12.195-9.307,16.099-17.794c6.186-13.447,27.327-18.899,30.945-0.523c3.276,16.635-13.979,38.816-25.478,47.638
		c-7.678,5.89-16.4,8.833-26.157,8.833C496.297,486.937,487.31,484.436,479.335,479.436z M270.277,743.24
		c-7.858,14.097-19.226,4.244-27.386,13.884c-3.806,4.497-4.622,10.748-4.983,16.628c-0.799,13.035-0.131,26.16,1.986,39.047
		c2.013,12.253,5.338,24.355,5.769,36.766c0.431,12.41-2.461,25.605-11.157,34.47c-11.369,11.591-30.662,12.872-45.213,5.67
		s-24.67-21.397-30.365-36.602c-3.289-8.783-5.219-17.949-6.695-27.188c-0.715-4.479,0.211-18.595-2.812-21.759
		c-7.53-7.882-16.138,5.263-17.617,12.607c-2.363,11.738-1.414,23.937-3.59,35.711c-2.177,11.781-8.661,24-20.043,27.738
		c-15.726,5.164-32.168-8.93-37.03-24.752c-4.862-15.822-1.991-32.818-1.807-49.369c0.196-17.646-2.755-35.323-8.672-51.949
		c-3.67-10.311-8.5-20.338-10.151-31.157c-1.65-10.82,0.529-23.028,8.811-30.183c10.65-9.201,28.169-6.432,38.342,3.295
		c11.212,10.722,14.423,27.26,16.187,42.017c0.605,5.059-5.851,65.024,15.504,40.916c2.491-2.812,3.837-6.441,4.928-10.036
		c2.69-8.861,4.157-18.093,4.347-27.351c0.175-8.5-0.63-17.458,3.169-25.064c7.074-14.161,26.35-16.171,39.687-10.337
		c20.669,9.041,9.275,25.241-0.305,38.642c-7.815,10.932-7.587,25.221-4.494,37.867c1.136,4.644,3.251,9.659,7.675,11.467
		c16.399,6.701,22.756-25.423,24.187-34.964c1.654-11.029,2.365-22.299,5.875-32.885c3.51-10.585,10.397-20.717,20.725-24.923
		c17.477-7.117,38.471,9.86,38.471,27.632C273.624,734.516,272.509,739.237,270.277,743.24z M665.249,801.922
		c6.188,6.557,8.542,15.977,9.919,24.967c2.132,13.92,1.947,29.944-8.091,39.821c-6.201,6.102-15.003,8.611-23.456,10.669
		c-11.965,2.913-24.04,5.372-36.192,7.369c-10.931,1.796-23.049,2.981-32.258-3.178c-8.365-5.595-12.202-16.043-13.186-26.059
		c-0.984-10.015,0.351-20.126-0.23-30.173c-1.69-29.212-53.001-106.931-7.375-123.214c14.1-5.032,30.319-2.129,44.726-0.123
		c28.739,4.002,26.782,23.943,17.072,45.03c-10.171,22.088-13.897,47.099-10.605,71.193c0.853,6.245,2.297,12.708,6.341,17.544
		s11.381,7.435,16.872,4.339c12.289-6.93,1.307-28.039,9.774-39.324c5.775-7.696,18.549-6.543,25.575,0.031
		C664.52,801.172,664.891,801.542,665.249,801.922z M69.705,324.703c-4.361,7.998,0.162,17.657,3.409,26.168
		c9.025,23.663,7.461,51.145-4.191,73.631c-6.566,12.67-16.389,27.15-9.729,39.771c5.024,9.521,17.034,12.432,27.627,14.352
		c20.505,3.716,44,6.721,60.103-6.507c16.594-13.632,17.726-38.18,17.505-59.654c-0.076-7.379-3.108-19.744-13.78-14.565
		c-3.878,1.882-6.387,5.678-8.946,9.186c-18.754,25.626-42.008-19.396-26.591-23.872c3.995-1.16,8.25-0.058,12.411,0.063
		c11.669,0.337,14.547-15.146,3.615-18.808c-7.773-2.604-21.385,1.481-21.619-10.319c-0.316-15.943,24.51-9.807,28.758,0.394
		c0.986,2.368,1.425,4.999,2.888,7.106c3.991,5.747,13.627,4.188,18.08-1.209c9.559-11.588,4.599-28.638-7.527-36.353
		c-6.121-3.895-13.487-5.292-20.706-6.018C117.744,316.735,77.594,310.236,69.705,324.703z M199.065,323.05
		c-11.358,1.691-20.977,7.089-21.719,19.496c-0.459,7.667,2.877,14.992,5.241,22.325c4.542,14.089,3.069,28.575,3.463,43.058
		c0.413,15.17,1.754,30.716-2.563,45.526c-1.725,5.919-5.207,6.699-9.569,10.206c-2.538,2.042-4.636,4.593-5.971,7.523
		c-8.202,18.001,18.186,24.974,30.888,26.509c12.326,1.489,25.098,0.145,37.12-2.685c17.508-4.12,32.342-13.897,42.682-28.185
		c26.087-36.046,17.082-89.365-13.501-120.24c-9.79-9.883-22.006-17.502-35.655-21.299
		C221.653,323.105,209.61,321.48,199.065,323.05z M207.774,418.732c-0.888-2.568-0.521-5.952-0.18-8.568
		c1.377-10.592,0.311-21.261-0.642-31.838c-0.533-5.912-4.966-22.456,3.93-24.566c10.663-2.53,15.39,15.547,16.885,22.484
		c2.391,11.092,2.086,24.773-3.287,35.106C221.968,416.179,211.502,429.509,207.774,418.732z M709.043,700.019
		c-11.558,0.315-22.938,2.521-32.14,7.859c-11.138,6.461-19.248,19.991-15.361,32.267c4.055,12.808,18.511,18.914,26.749,29.526
		c8.832,11.377,9.768,26.988,8.308,41.317c-1.46,14.328-4.938,28.629-3.533,42.963c3.774,38.5,36.251,34.453,65.203,25.79
		c17.995-5.385,32.849-16.5,42.738-32.037c24.95-39.199,12.245-94.22-21.558-124.501c-10.82-9.693-24.028-16.874-38.492-19.984
		C731.323,701.146,720.101,699.717,709.043,700.019z M724.144,801.981c-1.086-2.622-0.913-6.172-0.721-8.92
		c0.777-11.127-1-22.182-2.651-33.149c-0.923-6.13-6.574-23.099,2.568-25.853c10.958-3.301,17.01,15.249,19.001,22.387
		c3.183,11.414,3.716,25.694-1.242,36.8C738.782,798.436,728.701,812.983,724.144,801.981z M681.018,424.139
		c-5.164-10.611-11.242-20.917-13.992-32.514c-4.505-18.996,4.619-46.271-6.539-62.548c-4.041-5.895-10.541-9.488-17.249-10.858
		c-6.708-1.37-13.644-0.698-20.356,0.648c-6.075,1.218-12.298,3.121-16.888,7.553c-8.085,7.806-8.871,21.079-7.354,32.624
		c1.518,11.563,2.637,24.324,1.591,36.632c-1.295,15.239-5.907,29.783-17.186,40.494c-4.817,4.575-10.478,8.045-15.277,12.642
		c-4.799,4.597-8.84,10.803-8.843,17.699c-0.005,9.461,7.511,17.079,15.478,21.167c10.01,5.136,21.811,6.595,32.394,3.013
		c10.583-3.583,19.705-12.446,23.174-23.738c6.288-20.471-6.195-41.94-6.832-63.48c-0.108-3.654,0.189-7.515,2.094-10.549
		c1.905-3.033,5.857-4.845,8.873-3.132c1.787,1.015,2.895,2.997,3.753,4.959c4.638,10.608,4.447,22.821,3.965,34.523
		c-0.481,11.703-1.105,23.808,2.804,34.748c3.908,10.941,13.758,20.418,24.645,19.3c11.122-1.142,19.216-13.075,20.266-24.988
		C690.588,446.42,686.182,434.75,681.018,424.139z M635.481,366.913c-3,3.15-8.706,3.336-11.024-0.416l-0.921,0.509
		c-1.159-4.736-2.317-9.758-1.025-14.454c1.292-4.696,6.035-8.667,10.338-7.015c3.268,1.254,5,5.125,5.582,8.791
		C639.136,358.762,638.481,363.763,635.481,366.913z M677.584,364.88c1.158,5.709,4.26,11.607,10.405,14.445
		c6.145,2.838,15.589,0.938,17.47-4.64c1.158-3.434-0.692-7.033-0.79-10.595s3.371-7.855,7.48-6.704
		c2.623,0.734,3.725,3.251,4.259,5.483c7.454,31.149-28.422,61.711-19.009,92.5c4.438,14.515,20.283,26.691,38.478,27.658
		s36.681-10.702,38.317-25.607c1.367-12.457-7.806-23.78-14.384-35.062c-8.896-15.256-13.434-32.037-15.348-48.878
		c-0.417-3.665-0.667-7.542,1.322-10.842c1.989-3.299,7.007-5.655,11.069-4.095c6.773,2.601,4.396,12.112,10.521,15.634
		c3.077,1.769,7.501,1.292,10.544-0.518c11.008-6.547,11.226-24.879,4.148-33.343c-3.97-4.747-10.601-7.638-17.425-8.972
		c-14.144-2.765-27.807,0.225-41.946-0.51c-6.219-0.323-12.325-1.743-18.556-1.752C682.029,329.051,674.533,349.846,677.584,364.88z
		 M878.78,369.247c-1.79-17.104-11.028-41.653-29.784-46.858c-19.764-5.485-45.974,5.542-51.652,26.004
		c-2.495,8.991-0.967,18.527-0.696,27.855c0.373,12.888-1.697,25.708-2.531,38.574c-0.835,12.866-0.351,26.19,4.821,38
		c5.172,11.81,15.846,21.872,28.663,23.277c12.145,1.331,24.158-5.318,31.91-14.761c7.752-9.443,11.848-21.345,14.738-33.216
		C878.928,408.903,880.839,388.92,878.78,369.247z M847.41,376.487c-3.044,4.019-8.494,6.576-13.26,4.93
		c-5.998-2.072-8.294-9.445-8.173-15.79c0.148-7.782,4.61-22.103,14.369-22.885c10.416-0.835,12.504,11.993,11.713,19.554
		C851.534,367.31,850.453,372.468,847.41,376.487z M383.076,767.331c-0.727-19.779-10.182-48.964-33.376-57.158
		c-24.439-8.634-58.488,0.849-67.481,23.578c-3.952,9.987-2.878,21.078-3.372,31.78c-0.683,14.787-4.442,29.205-6.646,43.823
		c-2.205,14.618-2.787,29.917,2.68,44.044c5.467,14.128,18.03,26.912,34.071,30.049c15.2,2.972,30.95-3.198,41.573-13.074
		c10.624-9.876,16.856-23.001,21.564-36.235C379.711,812.712,383.911,790.08,383.076,767.331z M342.856,771.866
		c-4.199,4.234-11.303,6.508-17.167,4.056c-7.38-3.086-9.616-11.795-8.896-19.038c0.883-8.884,7.794-24.733,20.174-24.462
		c13.214,0.289,14.699,15.212,13.025,23.766C348.881,761.861,347.055,767.632,342.856,771.866z M1016.424,436.394
		c-10.856-8.822-23.339-15.828-32.676-26.251c-3.733-4.167-7.075-9.685-5.561-15.071c1.874-6.668,9.714-9.165,15.841-12.395
		c10.85-5.721,18.665-16.859,20.354-29.008c1.689-12.149-2.791-24.996-11.669-33.46c-9.366-8.929-22.631-12.637-35.534-13.618
		c-20.126-1.529-42.363-0.68-62.357,2.188c-7.8,1.119-16.049,4.871-18.976,12.187c-2.689,6.723-0.142,14.264,2.106,21.147
		c6.356,19.457,10.32,40.137,7.498,60.411c-2.112,15.177-7.961,29.7-9.416,44.954s2.796,32.617,15.897,40.565
		c11.371,6.898,27.663,4.021,35.983-6.355c8.978-11.196,7.983-27.118,6.534-41.396c-1.38-13.599-2.759-27.198-4.139-40.796
		c-0.355-3.498,0.037-8.137,3.45-8.98c3.946-0.975,6.273,4.249,6.921,8.262c2.657,16.467,5.314,32.934,7.971,49.401
		c2.345,14.535,5.793,30.819,18.227,38.704c7.487,4.748,16.886,5.385,25.708,4.517c6.965-0.685,13.98-2.273,19.965-5.901
		c5.985-3.628,10.85-9.522,12.039-16.419c1.683-9.755-4.091-19.31-11.074-26.327
		C1021.275,440.498,1018.891,438.399,1016.424,436.394z M952.404,352.989c-3.737,6.368-10.705,10.517-16.873,5.513
		c-3.261-2.646-4.406-7.043-5.363-11.132c-0.812-3.468-1.627-7.074-0.878-10.556c2.452-11.403,18.874-6.635,23.843,0.213
		C956.311,341.412,955.386,347.907,952.404,352.989z M529.963,829.902c-11.337-9.213-24.373-16.529-34.123-27.413
		c-3.898-4.352-7.388-10.114-5.807-15.738c1.957-6.964,10.144-9.571,16.543-12.944c11.33-5.974,19.492-17.606,21.256-30.293
		c3.198-23-15.865-49.408-36.315-58.337c-13.225-5.774-28.712-6.162-42.209-1.056c-7.642,2.891-14.74,7.479-22.802,8.808
		c-7.02,1.157-14.298-0.254-21.28,1.112c-18.184,3.556-13.593,24.642-9.423,37.405c6.638,20.319,10.777,41.914,7.83,63.086
		c-2.206,15.849-8.314,31.015-9.833,46.945c-1.519,15.93,2.92,34.062,16.601,42.361c11.875,7.203,28.888,4.199,37.576-6.637
		c9.375-11.692,8.336-28.319,6.824-43.229c-1.441-14.201-2.881-28.402-4.322-42.603c-0.371-3.653,0.039-8.498,3.603-9.378
		c4.121-1.018,6.551,4.437,7.227,8.627c2.775,17.196,5.549,34.393,8.324,51.589c2.449,15.179,6.05,32.184,19.034,40.419
		c7.818,4.958,17.633,5.623,26.847,4.717c7.273-0.715,14.599-2.374,20.849-6.163c6.25-3.789,11.33-9.944,12.573-17.146
		c1.757-10.187-4.272-20.166-11.564-27.493C535.029,834.188,532.54,831.996,529.963,829.902z M463.107,742.803
		c-3.903,6.651-11.18,10.983-17.621,5.758c-3.405-2.763-4.601-7.355-5.601-11.625c-0.848-3.621-1.699-7.387-0.917-11.024
		c2.561-11.908,19.71-6.929,24.899,0.222C467.188,730.714,466.222,737.496,463.107,742.803z M1050.45,408.59
		c-1.295,0.344-2.538,0.773-3.653,1.194c-3.722,1.404-6.754,4.597-8.345,8.199c-2.09,4.73-2.03,9.969-1.501,14.963
		c2.23,21.043,13.02,41.491,31.611,52.477c18.591,10.986,45.232,10.709,62.775-3.283c20.034-15.979,23.357-45.433,12.753-67.032
		s-32.178-36.3-54.973-46.24c-5.28-2.302-11.006-4.678-13.861-9.473c-2.855-4.795-0.672-12.707,5.206-13.641
		c5.591-0.888,9.917,4.501,13.307,8.021c4.651,4.83,9.158,9.424,15.594,11.912c6.244,2.414,13.795,2.283,19.159-1.722
		c4.123-3.078,6.49-8.032,7.608-13.054c2.113-9.486,0.129-19.813-5.348-27.84c-12.621-18.497-40.082-18.522-59.154-11.365
		c-11.557,4.337-22.274,11.562-29.231,21.434c-6.957,9.872-9.796,22.514-6.137,33.433c5.926,17.687,25.609,21.207,35.174,35.669
		c3.785,5.722,7.046,14.089,2.219,20.261c-1.588,2.029-4.496,3.549-6.701,2.216c-1.365-0.825-1.992-2.49-2.169-4.075
		c-0.177-1.585-0.003-3.197-0.232-4.776c-0.448-3.089-2.538-5.891-5.371-7.202C1056.598,407.468,1053.391,407.809,1050.45,408.59z"
		/>
	<path fill="#F9C34B" d="M852.617,557.05c-1.701-3.06-1.569-6.898,0.338-9.835c1.907-2.937,5.528-4.88,9.281-4.979
		c2.572-0.068,5.08,0.665,7.604,1.133c15.278,2.832,6.09-15.138,13.181-23.016c5.165-5.739,14.201-7.853,21.19-4.521
		c18.85,8.987-5.19,25.773,8.52,32.877c3.685,1.909,8.309,0.51,12.488,1.111c4.868,0.7,9.037,4.457,9.861,8.885
		c1.163,6.252-3.74,11.162-10.496,11.27c-2.871,0.046-5.765-0.442-8.602-0.055c-4.03,0.551-7.685,2.969-9.503,6.286
		c-3.196,5.832,0.355,19.502,1.309,25.979c1.397,9.487,4.513,18.706,7.751,27.793c5.111,14.341,11.134,24.871,4.05,39.368
		c-5.057,10.348-14.823,20.198-28.009,20.901c-13.906,0.742-27.013-9.407-31.91-22.361c-4.898-12.954-2.476-27.865,4.124-40.046
		c4.177-7.709,9.948-14.583,13.172-22.732c4.085-10.323,2.498-22.012,2.458-32.784c-0.005-1.455-0.039-3.001-0.904-4.229
		c-1.326-1.883-4.068-2.35-6.498-2.632c-4.775-0.555-10.055-1.364-14.108-3.499C855.679,560.789,853.817,559.21,852.617,557.05z
		 M936.952,672.068c1.607,9.312,8.465,18.322,17.949,19.832c12.872,2.048,24.062-10.359,26.421-22.962s-1.225-25.448-2.56-38.199
		c-1.029-9.826-0.711-19.785,0.94-29.526c0.879-5.187,3.254-11.367,8.564-11.996c3.842-0.455,7.404,2.567,8.821,6.11
		c1.417,3.543,1.189,7.484,0.94,11.281c-0.902,13.767-1.78,51.07-2.682,64.837c-0.832,12.7,1.773,24.596,10.955,34.27
		c7.926,8.351,19.474,13.355,31.16,13.503c7.988,0.101,16.476-2.316,21.459-8.366c6.352-7.712,5.232-19.353,0.04-27.865
		c-6.236-10.225-17.902-14.647-24.627-23.995c-4.288-5.96-7.296-12.69-9.285-19.677c-3.952-13.881-3.978-28.57-2.923-42.822
		c0.714-9.637,1.487-19.727-2.436-28.592c-3.923-8.865-14.278-15.815-23.534-12.571c-3.262,1.143-6.272,3.453-9.734,3.284
		c-11.554-0.565-9.968-18.228-9.513-25.768c0.767-12.711,5.057-25.104-12.394-28.239c-11.545-2.074-23.975,6.212-26.283,17.52
		c-1.872,9.176,2.201,18.372,5.291,27.23c7.453,21.364,8.785,43.713,6.358,66.042C947.79,634.627,933.533,652.252,936.952,672.068z
		 M1087.152,578.86c-5.823,0.438-11.915,1.743-16.047,5.489c-5.099,4.623-5.933,12.502-2.31,18.208
		c3.624,5.706,11.19,8.974,18.369,8.36c8.933-0.764,16.109-6.643,23.902-10.661c7.793-4.018,18.938-5.745,24.789,0.494
		c2.419,2.579,3.374,6.026,3.911,9.376c2.654,16.552-3.706,34.177-17.047,45.568c-13.341,11.391-33.421,16.015-51.025,11.233
		c-43.44-11.801-45.634-63.892-26.056-93.83c11.334-17.332,30.209-30.413,51.585-35.752c10.287-2.569,21.675-3.31,31.369,0.836
		s16.857,14.256,14.209,23.674c-2.623,9.33-13.491,14.84-23.946,16.284c-1.632,0.226-3.271,0.379-4.913,0.48
		C1105.063,579.166,1096.049,578.191,1087.152,578.86z M1087.124,561.275c4.632,6.269,18.436,1.227,26.381-2.291
		c3.583-1.587,4.237-6.254,0.942-8.329c-0.023-0.014-0.046-0.029-0.069-0.043c-2.311-1.421-5.213-1.784-7.993-1.753
		C1100.474,548.926,1081.295,553.384,1087.124,561.275z"/>
	<path fill="#FF6D00" d="M78.535,667.448c-8.329-5.22-14.948-12.928-19.858-23.123c-4.913-10.191-7.364-22.531-7.364-37.022
		c0-10.108,1.304-21.057,3.913-32.849c5.717-25.272,14.361-43.505,25.921-54.712c16.905-16.389,44.191-23.958,66.703-20.689
		c10.097,1.467,20.087,6.147,26.597,14.526c16.302,20.983-3.176,65.456-30.849,47.643c-8.692-5.595-9.049-16.776-21.795-16.475
		c-26.11,0.616-44.561,91.096-10.315,90.691c12.759-0.152,12.735-9.719,16.812-18.582c6.46-14.042,28.537-19.736,32.316-0.546
		c3.421,17.371-14.598,40.535-26.607,49.748c-8.018,6.151-17.127,9.224-27.316,9.224C96.249,675.281,86.864,672.67,78.535,667.448z
		 M300.266,520.981c1.075,2.757,1.758,5.686,2.054,8.613c1.941,19.146-3.434,41.732-6.334,60.718
		c-2.289,14.98-2.943,31.487,5.589,44.01c7.547,11.078,18.815,15.57,19.103,30.336c0.214,10.958-4.935,22.149-13.903,28.584
		c-12.263,8.8-30.551,7.924-41.917-2.006c-7.712-6.738-12.005-16.745-13.558-26.867c-1.846-12.038,0.573-23.542,1.225-35.498
		c0.585-10.731-1.295-32.879-15.918-31.878c-3.594,0.247-7.33,0.785-10.288,2.842c-8.365,5.817-5.434,27.233-7.458,36.362
		c-3.19,14.367-0.285,32.045-12.058,42.876c-9.347,8.599-24.548,10.001-35.31,3.258c-14.853-9.307-15.516-24.283-7.508-37.224
		c9.287-15.008,13.713-33.976,17.515-51.009c3.164-14.175,7.618-30.285,7.655-44.852c0.02-8.21-3.863-15.927-3.401-24.322
		c0.312-5.662,3.251-11.125,7.803-14.505c8.401-6.237,33.131-7.031,41.193,0.341c6.089,5.568,6.056,15.166,4.21,23.208
		c-1.978,8.62-8.298,20.908-5.509,29.792c2.417,7.7,11.893,11.231,18.818,6.836c11.256-7.144,10.571-28.403,10.749-40.051
		c0.11-7.229,0.882-15.167,6.034-20.239c5.705-5.615,15.505-5.589,22.15-1.126C295.405,512.003,298.416,516.236,300.266,520.981z
		 M398.937,608.686c3.296,3.674,6.997,7.047,10.613,10.409c6.716,6.244,13.474,12.914,16.867,21.434
		c12.301,30.891-24.123,54.07-50.621,40.477c-14.222-7.296-22.738-23.12-24.308-39.027c-1.543-10.418,1.672-40.244-9.153-46.816
		c-8.089-4.911-11.201,3.102-12.733,9.542c-2.252,9.468-0.146,35.053-16.766,26.583c-11.049-5.631,1.315-39.812,3.126-50.369
		c2.05-11.95,4.1-23.9,6.15-35.85c2.072-12.381,5.72-21.854,10.949-28.423c5.233-6.565,13.113-11.105,23.658-13.615
		c16.414-3.907,27.471,6.798,31.051,23.153c2.606,11.905,0.748,24.26-0.347,36.398c-1.095,12.138-1.287,24.954,4.241,35.815
		C393.584,602.166,396.111,605.536,398.937,608.686z M351.123,565.655c0.277-0.064,0.552-0.14,0.825-0.228
		c9.615-3.092,7.459-15.169,7.637-21.815c0.086-1.679-0.069-3.37-0.474-5.072c-0.591-2.482-1.644-4.203-3.156-5.157
		c-1.511-0.953-3.369-1.167-5.568-0.644c-2.779,0.662-4.936,2.143-6.468,4.442c-3.644,5.469-7.858,19.29-3.916,24.66
		C342.308,564.98,346.931,566.629,351.123,565.655z M503.208,498.853c8.369,3.173,15.757,8.036,18.844,12.798
		c6.38,9.84,6.122,22.552,4.06,34.096c-2.757,15.437-5.491,29.017-4.616,44.706c1.076,19.307,7.28,39.157,1.302,58.374
		c-3.249,10.443-12.921,19.758-23.814,18.783c-10.229-0.916-17.582-9.995-23.133-18.635c-8.297-12.914-15.428-26.576-21.288-40.764
		c-2.997-7.255-5.073-28.093-16.122-26.252c-13.459,2.242-2.989,19.229-12.739,25.939c-5.351,3.682-13.176,3.611-18.074-0.166
		c-9.599-7.406-3.124-26.757-1.804-36.96c1.85-14.295,1.819-28.723-0.104-42.843c-0.561-4.117-1.277-8.322-0.311-12.441
		c2.286-9.741,16.87-12.401,24.198-7.272c8.344,5.841,10.787,17.767,14.944,26.47c6.262,13.112,9.419,30.117,19.491,41.04
		c8.462,9.177,9.277,1.361,8.57-7.91c-0.985-12.912-1.153-26.484-3.353-39.243c-1.631-9.458-5.313-19.132,1.726-27.713
		C477.245,493.231,491.231,494.311,503.208,498.853z M568.834,684.018c-7.405-4.6-13.583-11.788-18.537-21.572
		c-4.957-9.776-8.042-21.713-9.254-35.811c-0.924-10.745-0.612-22.844,0.93-36.29c3.446-28.692,10.958-49.397,22.531-62.107
		c11.569-12.71,24.504-19.679,38.8-20.909c7.164-0.616,14.254,0.904,20.806,4.152c4.693,2.327,10.418,8.476,15.966,7.61
		c5.964-0.931,7.942-8.173,12.8-11.767c2.177-1.605,4.795-2.542,7.857-2.805c3.321-0.286,6.094,0.587,8.327,2.612
		c2.229,2.03,3.506,4.891,3.824,8.591c0.121,1.412,0.075,3.102-0.143,5.072l-4.026,33.892c-0.793,5.75-1.953,9.844-3.476,12.279
		c-1.526,2.44-3.762,3.786-6.695,4.038c-3.063,0.263-5.868-0.561-8.409-2.472c-2.548-1.91-5.581-5.466-9.117-10.664
		c-4.722-7.051-8.778-11.979-12.17-14.795c-3.392-2.811-6.94-4.064-10.641-3.746c-5.741,0.494-10.853,4.975-15.334,13.434
		c-4.481,8.464-7.831,22.197-10.053,41.201c-1.382,12.366-1.693,22.955-0.936,31.764c0.803,9.34,2.723,16.317,5.758,20.936
		c3.031,4.625,6.908,6.725,11.633,6.319c4.076-0.351,7.119-1.936,9.125-4.765c6.173-8.703,4.563-22.486,0.734-31.831
		c-2.78-6.787-6.004-14.148-4.257-21.262c1.456-5.929,6.282-10.388,11.682-12.3s11.304-1.59,16.925-0.452
		c6.783,1.373,13.581,4.038,18.615,9.175c5.034,5.137,7.968,13.114,6.043,20.216c-1.546,5.706-5.46,10.083-6.486,16.002
		c-0.807,4.651,0.2,10.954-0.38,16.02c-1.318,11.525-0.722,25.793-6.907,36.027c-2.444,4.044-6.45,7.425-11.15,7.918
		c-8.289,0.87-13.077-9.035-15.322-15.581l-2.577-7.502c-7.915,15.594-18.768,23.981-32.551,25.167
		C584.214,690.548,576.239,688.618,568.834,684.018z M687.052,514.299c-3.549,7.756,0.081,15.767,1.171,23.597
		c1.542,11.079,1.406,22.82,1.242,33.986c-0.274,18.711-2.7,36.816-5.464,55.214c-1.973,13.133-8.593,34.179-2.29,46.081
		c5.627,10.625,18.279,13.486,29.411,15.273c21.55,3.46,46.191,6.001,62.463-9.617c16.768-16.094,16.96-44.012,15.863-68.388
		c-0.377-8.377-4.04-22.305-14.969-16.029c-3.971,2.281-6.437,6.684-8.966,10.762c-18.539,29.795-44.623-20.468-28.713-26.122
		c4.123-1.465,8.608-0.372,12.955-0.389c12.192-0.05,14.571-17.738,3.014-21.491c-8.218-2.669-22.258,2.474-22.978-10.916
		c-0.973-18.092,25.184-12.045,30.028-0.618c1.124,2.652,1.688,5.624,3.3,7.962c4.396,6.378,14.391,4.251,18.821-2.043
		c9.509-13.513,3.645-32.69-9.321-41.001c-6.545-4.196-14.289-5.509-21.852-6.066C736.866,503.47,694.705,497.579,687.052,514.299z
		 M897.583,741.028c-7.269-7.127-18.443-11.379-27.936-7.659c-7.565,2.964-12.605,10.434-14.459,18.267
		c-1.854,7.833-0.961,16.044,0.419,23.982c4.244,24.396,13.06,48.022,25.867,69.321c5.215,8.673,11.254,17.135,19.554,23.012
		c8.3,5.877,19.25,8.838,28.912,5.657c15.362-5.058,21.899-22.534,26.459-37.889c6.007-20.229,12.014-40.458,18.022-60.686
		c3.252-10.949,6.211-23.772-0.65-32.985c-7.553-10.142-23.837-9.995-34.445-3.086c-6.914,4.503-14.053,21.288-20.872,23.124
		C908.666,764.72,903.208,746.542,897.583,741.028z M1051.443,740.927c-6.351-5.111-14.146-8.317-22.27-8.39
		c-67.565-0.611-3.149,115.473,11.424,139.169c4.998,8.127,12.461,17.298,21.848,15.59c4.534-0.825,8.17-4.118,11.448-7.356
		c26.057-25.737,46.541-57.088,59.643-91.289c5.843-15.251,9.548-34.387-1.54-46.378c-6.693-7.237-17.601-9.714-27.214-7.532
		s-17.929,8.515-23.978,16.299c-3.557,4.577-8.558,10.395-13.861,8.054c-2.608-1.151-3.995-3.942-5.42-6.412
		C1058.94,748.204,1055.484,744.18,1051.443,740.927z"/>
</g>
</svg>
